<svg width="30" height="30" viewBox="0 0 30 30" fill="none" xmlns="http://www.w3.org/2000/svg">
<path d="M13.0469 11.0938H11.0938V22.8125H13.0469V11.0938Z" fill="#0F0F0F"/>
<path d="M18.9062 11.0938H16.9531V22.8125H18.9062V11.0938Z" fill="#0F0F0F"/>
<path d="M3.28125 5.23438V7.1875H5.23438V26.7188C5.23438 27.2368 5.44015 27.7335 5.80643 28.0998C6.17271 28.4661 6.6695 28.6719 7.1875 28.6719H22.8125C23.3305 28.6719 23.8273 28.4661 24.1936 28.0998C24.5598 27.7335 24.7656 27.2368 24.7656 26.7188V7.1875H26.7188V5.23438H3.28125ZM7.1875 26.7188V7.1875H22.8125V26.7188H7.1875Z" fill="#0F0F0F"/>
<path d="M18.9062 1.32812H11.0938V3.28125H18.9062V1.32812Z" fill="#0F0F0F"/>
</svg>
