<svg width="23" height="23" viewBox="0 0 23 23" fill="none" xmlns="http://www.w3.org/2000/svg">
<path fill-rule="evenodd" clip-rule="evenodd" d="M22.9584 3.16675C22.9584 1.44086 21.5593 0.041748 19.8334 0.041748H3.16669C1.4408 0.041748 0.041687 1.44086 0.041687 3.16675V14.6251C0.041687 16.351 1.4408 17.7501 3.16669 17.7501H10.4584V20.8751H5.25002C4.67473 20.8751 4.20835 21.3414 4.20835 21.9167C4.20835 22.4921 4.67473 22.9584 5.25002 22.9584H17.75C18.3253 22.9584 18.7917 22.4921 18.7917 21.9167C18.7917 21.3414 18.3253 20.8751 17.75 20.8751H12.5417V17.7501H19.8334C21.5593 17.7501 22.9584 16.351 22.9584 14.6251V3.16675ZM20.875 3.16675C20.875 2.59146 20.4087 2.12508 19.8334 2.12508H3.16669C2.5914 2.12508 2.12502 2.59146 2.12502 3.16675V14.6251C2.12502 15.2004 2.5914 15.6667 3.16669 15.6667H19.8334C20.4087 15.6667 20.875 15.2004 20.875 14.6251V3.16675Z" fill="#0F0F0F"/>
</svg>
