<svg width="27" height="27" viewBox="0 0 27 27" fill="none" xmlns="http://www.w3.org/2000/svg">
<path d="M13.832 6.75203L1 19.584V26H7.416L20.248 13.168M13.832 6.75203L18.4332 2.1507L18.4361 2.14797C19.0694 1.51459 19.3867 1.19733 19.7524 1.07851C20.0746 0.973831 20.4216 0.973831 20.7438 1.07851C21.1092 1.19725 21.4261 1.51414 22.0586 2.14663L24.8492 4.93727C25.4844 5.57248 25.8022 5.89024 25.9212 6.25648C26.0259 6.57862 26.0258 6.92563 25.9212 7.2478C25.8023 7.61377 25.4851 7.93104 24.8507 8.56534L24.8492 8.5667L20.248 13.168M13.832 6.75203L20.248 13.168" stroke="black" stroke-width="2" stroke-linecap="round" stroke-linejoin="round"/>
</svg>
